<svg width="17" height="19" viewBox="0 0 17 19" fill="#8C8C8C" xmlns="http://www.w3.org/2000/svg">
    <path d="M2.50523 10.0415L9.19453 3.35078C9.80881 2.7365 10.642 2.3914 11.5107 2.3914C12.3794 2.3914 13.2125 2.7365 13.8268 3.35078C14.4411 3.96506 14.7862 4.7982 14.7862 5.66693C14.7862 6.53565 14.4411 7.36879 13.8268 7.98307L6.10828 15.7031C6.00761 15.8074 5.88717 15.8906 5.75399 15.9479C5.62081 16.0052 5.47755 16.0354 5.33258 16.0367C5.18761 16.038 5.04383 16.0105 4.90962 15.9557C4.77541 15.9008 4.65347 15.8198 4.5509 15.7173C4.44834 15.6149 4.36721 15.493 4.31225 15.3588C4.25729 15.2247 4.22959 15.0809 4.23079 14.936C4.23198 14.791 4.26203 14.6477 4.31919 14.5145C4.37634 14.3812 4.45947 14.2607 4.5637 14.1599L12.2837 6.43849C12.4766 6.23151 12.5816 5.95776 12.5766 5.6749C12.5716 5.39204 12.457 5.12216 12.2569 4.92212C12.0569 4.72207 11.787 4.60749 11.5042 4.60249C11.2213 4.5975 10.9475 4.7025 10.7406 4.89536L3.01912 12.6154C2.40484 13.2296 2.05974 14.0628 2.05974 14.9315C2.05974 15.8002 2.40484 16.6334 3.01912 17.2477C3.6334 17.8619 4.46654 18.207 5.33526 18.207C6.20398 18.207 7.03713 17.8619 7.65141 17.2477L15.3729 9.52765C16.3968 8.50372 16.972 7.11498 16.972 5.66693C16.972 4.21887 16.3968 2.83013 15.3729 1.8062C14.3489 0.782268 12.9602 0.207031 11.5121 0.207031C10.0641 0.207031 8.67533 0.782268 7.65141 1.8062L0.960643 8.49696C0.856315 8.59763 0.773081 8.71807 0.715797 8.85125C0.658513 8.98443 0.628327 9.12769 0.626999 9.27266C0.625671 9.41763 0.653229 9.56141 0.708064 9.69562C0.7629 9.82983 0.843914 9.95177 0.94638 10.0543C1.04885 10.1569 1.17071 10.238 1.30487 10.293C1.43903 10.348 1.58278 10.3756 1.72776 10.3745C1.87273 10.3733 2.01601 10.3432 2.14925 10.2861C2.28248 10.2289 2.40446 10.1458 2.50523 10.0415Z" />
</svg>
