<svg width="18" height="19" viewBox="0 0 18 19" fill="currentColor" xmlns="http://www.w3.org/2000/svg">
    <path d="M10.0575 9.24989L14.7825 4.5324C14.9237 4.39117 15.003 4.19962 15.003 3.99989C15.003 3.80017 14.9237 3.60862 14.7825 3.46739C14.6412 3.32617 14.4497 3.24683 14.25 3.24683C14.0502 3.24683 13.8587 3.32617 13.7175 3.46739L8.99995 8.1924L4.28245 3.46739C4.14123 3.32617 3.94968 3.24683 3.74995 3.24683C3.55023 3.24683 3.35868 3.32617 3.21745 3.46739C3.07623 3.60862 2.99689 3.80017 2.99689 3.99989C2.99689 4.19962 3.07623 4.39117 3.21745 4.5324L7.94245 9.24989L3.21745 13.9674C3.14716 14.0371 3.09136 14.1201 3.05329 14.2115C3.01521 14.3029 2.99561 14.4009 2.99561 14.4999C2.99561 14.5989 3.01521 14.6969 3.05329 14.7883C3.09136 14.8797 3.14716 14.9627 3.21745 15.0324C3.28718 15.1027 3.37013 15.1585 3.46152 15.1966C3.55292 15.2346 3.65095 15.2542 3.74995 15.2542C3.84896 15.2542 3.94699 15.2346 4.03839 15.1966C4.12978 15.1585 4.21273 15.1027 4.28245 15.0324L8.99995 10.3074L13.7175 15.0324C13.7872 15.1027 13.8701 15.1585 13.9615 15.1966C14.0529 15.2346 14.1509 15.2542 14.25 15.2542C14.349 15.2542 14.447 15.2346 14.5384 15.1966C14.6298 15.1585 14.7127 15.1027 14.7825 15.0324C14.8527 14.9627 14.9085 14.8797 14.9466 14.7883C14.9847 14.6969 15.0043 14.5989 15.0043 14.4999C15.0043 14.4009 14.9847 14.3029 14.9466 14.2115C14.9085 14.1201 14.8527 14.0371 14.7825 13.9674L10.0575 9.24989Z" />
</svg>
