<svg width="24" height="25" viewBox="0 0 24 25" fill="none" xmlns="http://www.w3.org/2000/svg">
    <path d="M19 4.375H17V3.375C17 3.10978 16.8946 2.85543 16.7071 2.66789C16.5196 2.48036 16.2652 2.375 16 2.375C15.7348 2.375 15.4804 2.48036 15.2929 2.66789C15.1054 2.85543 15 3.10978 15 3.375V4.375H9V3.375C9 3.10978 8.89464 2.85543 8.70711 2.66789C8.51957 2.48036 8.26522 2.375 8 2.375C7.73478 2.375 7.48043 2.48036 7.29289 2.66789C7.10536 2.85543 7 3.10978 7 3.375V4.375H5C4.20435 4.375 3.44129 4.69107 2.87868 5.25368C2.31607 5.81629 2 6.57935 2 7.375V19.375C2 20.1706 2.31607 20.9337 2.87868 21.4963C3.44129 22.0589 4.20435 22.375 5 22.375H19C19.7956 22.375 20.5587 22.0589 21.1213 21.4963C21.6839 20.9337 22 20.1706 22 19.375V7.375C22 6.57935 21.6839 5.81629 21.1213 5.25368C20.5587 4.69107 19.7956 4.375 19 4.375ZM20 19.375C20 19.6402 19.8946 19.8946 19.7071 20.0821C19.5196 20.2696 19.2652 20.375 19 20.375H5C4.73478 20.375 4.48043 20.2696 4.29289 20.0821C4.10536 19.8946 4 19.6402 4 19.375V12.375H20V19.375ZM20 10.375H4V7.375C4 7.10978 4.10536 6.85543 4.29289 6.66789C4.48043 6.48036 4.73478 6.375 5 6.375H7V7.375C7 7.64022 7.10536 7.89457 7.29289 8.08211C7.48043 8.26964 7.73478 8.375 8 8.375C8.26522 8.375 8.51957 8.26964 8.70711 8.08211C8.89464 7.89457 9 7.64022 9 7.375V6.375H15V7.375C15 7.64022 15.1054 7.89457 15.2929 8.08211C15.4804 8.26964 15.7348 8.375 16 8.375C16.2652 8.375 16.5196 8.26964 16.7071 8.08211C16.8946 7.89457 17 7.64022 17 7.375V6.375H19C19.2652 6.375 19.5196 6.48036 19.7071 6.66789C19.8946 6.85543 20 7.10978 20 7.375V10.375Z" fill="#8C8C8C"/>
</svg>
