<svg width="19" height="19" viewBox="0 0 19 19" fill="currentColor" xmlns="http://www.w3.org/2000/svg">
    <path d="M16.75 5.93001C16.7506 5.83131 16.7317 5.73346 16.6943 5.64208C16.657 5.5507 16.602 5.46759 16.5325 5.39751L13.3525 2.21751C13.2824 2.148 13.1993 2.09301 13.1079 2.05568C13.0166 2.01836 12.9187 1.99944 12.82 2.00001C12.7213 1.99944 12.6235 2.01836 12.5321 2.05568C12.4407 2.09301 12.3576 2.148 12.2875 2.21751L10.165 4.34001L1.96751 12.5375C1.898 12.6076 1.84301 12.6907 1.80568 12.7821C1.76836 12.8735 1.74944 12.9713 1.75001 13.07V16.25C1.75001 16.4489 1.82903 16.6397 1.96968 16.7803C2.11033 16.921 2.3011 17 2.50001 17H5.68001C5.78496 17.0057 5.88993 16.9893 5.98813 16.9518C6.08632 16.9144 6.17555 16.8567 6.25001 16.7825L14.4025 8.58501L16.5325 6.50001C16.601 6.42732 16.6567 6.34366 16.6975 6.25251C16.7047 6.19273 16.7047 6.13229 16.6975 6.07251C16.701 6.0376 16.701 6.00242 16.6975 5.96751L16.75 5.93001ZM5.37251 15.5H3.25001V13.3775L10.6975 5.93001L12.82 8.05251L5.37251 15.5ZM13.8775 6.99501L11.755 4.87251L12.82 3.81501L14.935 5.93001L13.8775 6.99501Z" />
</svg>
