<svg width="107" height="107" viewBox="0 0 107 107" fill="none" xmlns="http://www.w3.org/2000/svg">
    <path d="M99.5288 41.4061C97.7306 39.5605 95.8851 37.6203 95.1753 35.9641C94.4655 34.3078 94.5128 31.8471 94.4655 29.3391C94.4181 24.7489 94.3235 19.4962 90.6797 15.8525C87.036 12.2087 81.7833 12.1141 77.1931 12.0668C74.6851 12.0194 72.1297 11.9721 70.5681 11.3569C69.0065 10.7418 66.9717 8.80159 65.1262 7.00338C61.861 3.88016 58.1226 0.331055 53.2012 0.331055C48.2797 0.331055 44.5414 3.88016 41.2762 7.00338C39.4306 8.80159 37.4905 10.6471 35.8342 11.3569C34.178 12.0668 31.7172 12.0194 29.2092 12.0668C24.619 12.1141 19.3664 12.2087 15.7226 15.8525C12.0789 19.4962 11.9842 24.7489 11.9369 29.3391C11.8896 31.8471 11.8422 34.4025 11.2271 35.9641C10.6119 37.5257 8.67171 39.5605 6.87349 41.4061C3.75028 44.6712 0.201172 48.4096 0.201172 53.3311C0.201172 58.2525 3.75028 61.9909 6.87349 65.2561C8.67171 67.1016 10.5172 69.0418 11.2271 70.698C11.9369 72.3543 11.8896 74.815 11.9369 77.323C11.9842 81.9132 12.0789 87.1659 15.7226 90.8096C19.3664 94.4534 24.619 94.548 29.2092 94.5953C31.7172 94.6427 34.2726 94.69 35.8342 95.3052C37.3958 95.9203 39.4306 97.8605 41.2762 99.6587C44.5414 102.782 48.2797 106.331 53.2012 106.331C58.1226 106.331 61.861 102.782 65.1262 99.6587C66.9717 97.8605 68.9119 96.015 70.5681 95.3052C72.2244 94.5953 74.6851 94.6427 77.1931 94.5953C81.7833 94.548 87.036 94.4534 90.6797 90.8096C94.3235 87.1659 94.4181 81.9132 94.4655 77.323C94.5128 74.815 94.5601 72.2596 95.1753 70.698C95.7905 69.1364 97.7306 67.1016 99.5288 65.2561C102.652 61.9909 106.201 58.2525 106.201 53.3311C106.201 48.4096 102.652 44.6712 99.5288 41.4061ZM49.4155 30.6168C49.4155 29.6127 49.8143 28.6498 50.5243 27.9399C51.2342 27.2299 52.1971 26.8311 53.2012 26.8311C54.2052 26.8311 55.1681 27.2299 55.8781 27.9399C56.588 28.6498 56.9869 29.6127 56.9869 30.6168V57.1168C56.9869 58.1208 56.588 59.0837 55.8781 59.7937C55.1681 60.5036 54.2052 60.9025 53.2012 60.9025C52.1971 60.9025 51.2342 60.5036 50.5243 59.7937C49.8143 59.0837 49.4155 58.1208 49.4155 57.1168V30.6168ZM53.2012 79.8311C52.0781 79.8311 50.9802 79.498 50.0463 78.874C49.1125 78.2501 48.3847 77.3632 47.9549 76.3256C47.5251 75.288 47.4126 74.1462 47.6317 73.0447C47.8508 71.9431 48.3917 70.9313 49.1858 70.1371C49.98 69.343 50.9918 68.8021 52.0933 68.583C53.1949 68.3639 54.3366 68.4764 55.3743 68.9062C56.4119 69.336 57.2988 70.0638 57.9227 70.9976C58.5467 71.9315 58.8797 73.0294 58.8797 74.1525C58.8797 75.6585 58.2815 77.1029 57.2165 78.1678C56.1516 79.2328 54.7072 79.8311 53.2012 79.8311Z" fill="url(#paint0_linear_365_17834)"/>
    <defs>
        <linearGradient id="paint0_linear_365_17834" x1="53.2012" y1="0.331055" x2="53.2012" y2="106.331" gradientUnits="userSpaceOnUse">
            <stop stop-color="#FFB340"/>
            <stop offset="1" stop-color="#FF4F4F"/>
        </linearGradient>
    </defs>
</svg>
