<svg width="128" height="19" viewBox="0 0 128 19"  xmlns="http://www.w3.org/2000/svg">
    <path d="M0.100098 18.0185H3.17152V6.65277H3.39989L7.62446 18.0185H9.78279L14.0074 6.65277H14.2357V18.0185H17.3072V1.31714H13.3566L8.81196 13.5394H8.60662L4.05063 1.31714H0.100098V18.0185ZM26.3336 18.2847C30.2045 18.2847 32.5338 15.8079 32.5338 11.6528V11.6296C32.5338 7.50925 30.1702 4.99769 26.3336 4.99769C22.4971 4.99769 20.1338 7.52084 20.1338 11.6296V11.6528C20.1338 15.7963 22.4631 18.2847 26.3336 18.2847ZM26.3336 15.6343C24.5524 15.6343 23.5476 14.1644 23.5476 11.6528V11.6296C23.5476 9.14121 24.5641 7.64814 26.3336 7.64814C28.0922 7.64814 29.1197 9.14121 29.1197 11.6296V11.6528C29.1197 14.1644 28.1035 15.6343 26.3336 15.6343ZM35.0177 18.0185H38.3518V10.6458C38.3518 8.92129 39.288 7.79862 40.8295 7.79862C42.4051 7.79862 43.1358 8.74769 43.1358 10.5417V18.0185H46.47V9.77777C46.47 6.73381 44.9628 4.99769 42.1654 4.99769C40.3728 4.99769 39.1283 5.86573 38.5572 7.24306H38.3518V5.27547H35.0177V18.0185ZM55.051 18.2847C58.9219 18.2847 61.2512 15.8079 61.2512 11.6528V11.6296C61.2512 7.50925 58.8876 4.99769 55.051 4.99769C51.2145 4.99769 48.8512 7.52084 48.8512 11.6296V11.6528C48.8512 15.7963 51.1805 18.2847 55.051 18.2847ZM55.051 15.6343C53.2698 15.6343 52.265 14.1644 52.265 11.6528V11.6296C52.265 9.14121 53.2815 7.64814 55.051 7.64814C56.8096 7.64814 57.8371 9.14121 57.8371 11.6296V11.6528C57.8371 14.1644 56.8209 15.6343 55.051 15.6343Z" />
    <path d="M68.7581 18.0184H70.2083L74.2502 4.07171H74.3645L78.4064 18.0184H79.8566L84.3896 1.31708H82.7684L79.1485 15.5532H79.0458L75.084 1.31708H73.5311L69.5688 15.5532H69.4658L65.8463 1.31708H64.2251L68.7581 18.0184ZM89.4198 18.2268C91.2351 18.2268 92.7083 17.3587 93.4391 15.8773H93.5761V18.0184H95.0946V9.49993C95.0946 6.87263 93.416 5.34485 90.5386 5.34485C87.9923 5.34485 86.1314 6.618 85.8117 8.60874L85.8 8.65504H87.3189L87.3302 8.63189C87.6499 7.39345 88.8261 6.71059 90.493 6.71059C92.4799 6.71059 93.5761 7.68282 93.5761 9.51152V10.6805L89.7395 10.9351C86.8961 11.1319 85.3093 12.3934 85.3093 14.5578V14.581C85.3093 16.8032 87.0448 18.2268 89.4198 18.2268ZM86.8504 14.5578V14.5347C86.8504 13.1226 87.8552 12.324 89.9449 12.1851L93.5761 11.9305V13.3773C93.5761 15.3564 91.9088 16.8842 89.7052 16.8842C88.0496 16.8842 86.8504 15.9814 86.8504 14.5578ZM98.7656 18.0184H100.273V0.587891H98.7656V18.0184ZM104.127 18.0184H105.634V0.587891H104.127V18.0184ZM114.329 18.2268C117.047 18.2268 118.839 16.7222 119.319 15.0323L119.353 14.9397H117.835L117.789 15.0208C117.389 15.993 116.156 16.8495 114.364 16.8495C111.92 16.8495 110.344 15.1018 110.299 12.1851H119.536V11.537C119.536 7.84485 117.504 5.34485 114.204 5.34485C110.904 5.34485 108.757 7.9143 108.757 11.8032V11.8263C108.757 15.7384 110.881 18.2268 114.329 18.2268ZM114.204 6.71059C116.316 6.71059 117.835 8.16893 118.006 10.9351H110.31C110.504 8.23837 112.08 6.71059 114.204 6.71059ZM126.61 18.0995C126.975 18.0995 127.318 18.0647 127.66 18.0069V16.6874C127.352 16.7222 127.124 16.7337 126.781 16.7337C125.388 16.7337 124.852 16.0972 124.852 14.5694V6.83789H127.66V5.55319H124.852V2.31245H123.287V5.55319H121.312V6.83789H123.287V14.9166C123.287 17.1851 124.258 18.0995 126.61 18.0995Z" />
</svg>
