<svg width="76" height="71" viewBox="0 0 76 71" xmlns="http://www.w3.org/2000/svg">
    <path fill-rule="evenodd" clip-rule="evenodd" d="M48.9998 70.7167H56.3501C65.1889 70.7167 69.6083 70.7167 72.3543 68.1334C75.1001 65.55 75.1001 61.3921 75.1001 53.0764V17.7956C75.1001 9.47988 75.1001 5.32201 72.3543 2.73864C69.6083 0.155273 65.1889 0.155273 56.3501 0.155273H48.9998V70.7167ZM37.2078 70.7167V11.1607H36.3129L17.2036 23.9884V13.0923L36.5566 0.155273H18.8501C10.0113 0.155273 5.59184 0.155273 2.84597 2.73864C0.100098 5.32201 0.100098 9.47988 0.100098 17.7956V53.0764C0.100098 61.3921 0.100098 65.55 2.84597 68.1334C5.59184 70.7167 10.0113 70.7167 18.8501 70.7167H37.2078Z"/>
</svg>
