<svg width="174" height="181" viewBox="0 0 174 181" fill="none" xmlns="http://www.w3.org/2000/svg">
    <path d="M173.261 118.355C170.979 80.8187 141.852 69.2267 108.419 73.6059C97.9126 74.9675 84.3334 78.9603 76.8998 87.0747C62.4926 102.825 63.063 119.863 63.7806 140.085C63.799 140.6 64.3326 140.858 65.0686 140.913C65.9886 140.968 68.8774 143.599 71.7846 146.893C80.0278 156.203 90.1478 164.152 102.476 166.673C112.633 168.752 125.457 166.71 134.565 171.383C142.864 175.652 149.561 179.111 158.853 180.694C163.269 181.43 170.832 178.339 169.654 172.616C168.937 169.12 168.734 168.071 166.71 164.925C159.939 154.345 160.565 148.549 167.98 138.539C172.267 132.762 173.702 125.475 173.261 118.355ZM69.319 118.612C69.5398 114.233 72.5758 108.143 75.6486 104.996C82.5486 97.8755 89.4118 90.8283 96.2014 83.8547C99.2742 80.7083 99.863 78.6475 97.6182 79.4203C95.355 80.1931 90.9758 83.4131 87.811 86.4491C84.959 89.1907 81.8126 92.1899 78.3534 95.5019C77.3414 96.5139 76.3294 97.5259 75.3358 98.5195C73.6614 100.175 72.3366 101.427 72.3734 101.298C72.3918 101.224 72.4102 101.151 72.4286 101.077C78.6294 82.5299 98.8326 76.4027 117.288 75.7587C121.685 75.6115 122.624 78.2059 119.459 81.2603C113.847 86.6699 102.697 97.6547 74.931 125.457C71.8214 128.567 69.1534 127.518 69.2086 123.139C69.1902 121.63 69.2454 120.121 69.319 118.612ZM159.645 142.551C154.695 149.23 154.548 153.646 157.749 161.466C157.933 161.926 158.89 163.232 159.994 164.888C161.245 166.783 160.436 170.095 158.357 172.193C156.296 174.291 153.885 175.836 153.021 175.597C152.524 175.468 151.99 175.321 151.457 175.155C150.886 174.99 150.353 174.787 149.837 174.567C148.936 174.217 149.506 172.598 151.07 171.034C152.634 169.47 153.499 168.182 153.039 168.163C152.579 168.145 151.089 169.304 149.709 170.758C148.329 172.211 145.44 172.524 143.342 171.291C141.245 170.059 140.067 168.495 140.674 167.851C141.281 167.207 139.515 166.158 136.829 165.238C134.142 164.299 131.658 163.711 131.18 164.189C130.701 164.686 126.801 164.336 122.44 164.079C120.14 163.95 117.821 163.895 115.503 163.839C111.105 163.711 109.744 161.153 112.43 158.467C115.117 155.78 116.699 153.039 115.945 152.339C115.209 151.64 112.007 153.462 108.75 156.424C108.548 156.627 108.345 156.811 108.125 156.995C104.886 159.957 102.071 162.312 101.85 162.275C101.721 162.257 101.574 162.22 101.445 162.183C99.2926 161.503 97.2134 160.638 95.2262 159.626C91.9326 157.915 92.0798 153.683 95.2814 150.665C96.8454 149.193 98.391 147.721 99.955 146.249C103.138 143.231 105.677 140.692 105.604 140.6C105.53 140.49 102.917 142.9 99.7894 145.955C98.2254 147.482 96.6798 148.991 95.1342 150.518C91.9878 153.591 86.523 154.051 83.2846 151.07C80.0646 148.089 80.3406 142.974 83.579 139.993C88.0318 135.89 92.4846 131.768 96.9374 127.647C100.157 124.666 102.77 119.79 103.009 116.791C103.249 113.773 101.096 113.791 97.8758 116.772C91.5646 122.642 85.235 128.511 78.9238 134.381C75.7038 137.362 72.2446 138.723 71.2326 137.362C70.2206 136.019 69.411 134.399 69.3926 133.792C69.3742 133.185 71.9686 130.259 75.1702 127.26C85.8606 117.287 96.551 107.278 107.113 97.3971C110.314 94.3979 113.608 91.1411 114.528 90.1475C115.061 89.5771 115.613 89.0067 116.221 88.4179C116.754 87.9211 117.306 87.4243 117.913 86.9459C118.87 86.1731 121.943 83.5051 124.703 80.9107C127.463 78.3163 127.573 78.2427 128.493 77.5067C129.413 76.7707 130.352 76.1267 130.628 76.1451C130.812 76.1635 130.996 76.1635 131.161 76.2003C162.184 79.5123 177.934 117.913 159.645 142.551Z" fill="#58595A"/>
    <path d="M14.5606 129.56C12.7206 137.951 -5.7714 151.861 10.5494 155.688C19.8782 157.878 31.139 150.187 40.8174 143.876C41.443 143.489 42.0686 143.121 42.6942 142.753C43.7246 142.128 44.6814 141.539 44.8286 141.392C44.9758 141.244 46.6318 140.159 48.5822 139.092C49.8702 138.392 51.0846 137.804 52.2254 137.344C53.0902 136.994 53.9918 136.368 53.955 135.356C53.4582 118.189 54.2862 103.451 62.8606 89.4852C65.1606 85.75 70.0366 80.5244 73.6062 77.9668C99.2742 59.6404 142.165 58.702 165.017 80.5428C166.324 81.794 170.096 80.874 170.574 79.0524C180.657 39.5292 149.948 14.5052 115.006 4.21962C83.5238 -5.05398 46.1902 3.00522 22.2886 25.3796C9.243 37.5972 1.8094 55.5372 0.227002 73.0356C-1.7234 94.6188 19.5286 106.892 14.5606 129.56ZM48.159 119.036C48.1038 119.551 48.1038 121.391 48.1406 123.636C48.1774 126.175 45.6198 130.664 42.4182 133.645C38.6646 137.141 34.911 140.619 31.1574 144.115C27.9374 147.096 23.1534 150.316 20.6326 149.543C18.1118 148.788 19.179 144.704 22.3806 141.704C29.0782 135.467 35.7942 129.192 42.5286 122.9C45.7302 119.9 48.3062 117.821 48.251 118.244C48.1958 118.52 48.1774 118.778 48.159 119.036ZM5.4342 69.098C5.655 66.522 6.115 63.9092 6.7958 61.3148C7.8998 57.0644 9.0406 54.4884 8.7094 55.39C8.3782 56.2732 10.6414 54.47 13.7326 51.3604C25.7478 39.2164 37.7814 27.146 49.815 15.0572C52.9062 11.9476 53.5318 10.0892 51.2502 11.0276C48.9686 11.966 44.6446 15.3516 41.5534 18.4612C33.4942 26.5572 25.435 34.6348 17.3942 42.7308C14.303 45.8404 13.3646 45.178 15.6646 41.4428C19.1974 35.702 23.2086 30.5132 26.9622 26.3916C38.867 13.2724 56.1814 7.10842 73.6982 5.10282C78.059 4.60602 79.0158 6.86922 75.7774 9.85002C65.9702 18.866 56.623 27.4772 47.8278 35.5732C35.8678 47.294 23.6686 59.2908 11.3222 71.4532C8.1758 74.526 5.0662 73.4588 5.4342 69.098ZM10.2918 89.5956C9.4638 88.1052 11.3406 84.3332 14.4318 81.2052C17.5966 77.9852 22.123 73.3668 28.287 67.0924C32.703 62.5476 36.9718 58.1868 41.0566 53.9732C44.111 50.8268 46.7054 48.0668 46.8158 47.8092C46.9262 47.5516 44.5526 49.9068 41.4982 53.0532C31.691 63.1732 20.8534 74.342 14.3214 81.0948C11.267 84.2596 8.691 86.5964 8.5622 86.3204C8.4334 86.0444 10.8254 83.2844 13.8982 80.138C24.9382 68.8404 34.6166 58.9964 42.3262 51.2316C45.4174 48.122 49.5574 42.418 51.9862 38.7564C56.9358 31.286 63.0078 24.754 69.595 20.0988C71.2694 18.8844 73.0174 17.7436 74.8022 16.658C77.7462 14.8732 82.291 11.5612 84.7934 8.98522C87.2958 6.40922 90.4054 4.33002 91.7486 4.38522C92.5582 4.40362 93.3678 4.44042 94.1774 4.47722C94.6558 4.49562 95.1342 4.53242 95.6126 4.56922C96.4038 4.62442 96.2198 5.50762 95.2262 6.53802C94.2326 7.56842 95.815 7.62362 98.851 6.86922C101.869 6.11482 107.885 6.20682 112.136 7.31082C141.245 14.818 166.949 36.6588 166.581 66.614C166.526 71.0116 164.005 73.0724 161.521 71.5084C159.037 69.9444 158.007 67.9204 159.369 66.7244C160.73 65.5284 161.135 64.5348 160.289 64.4796C159.442 64.4428 157.915 65.234 156.903 66.2092C155.891 67.1844 151.861 66.4116 147.703 65.0132C119.514 55.482 83.1742 62.6764 62.7134 82.162C62.603 82.2724 62.5846 82.3644 62.4926 82.4564C56.1078 90.2028 52.3174 97.7284 50.183 106.321C49.1158 110.59 46.1902 116.644 43.0806 119.753C37.0086 125.825 29.9614 132.891 21.7734 141.097C18.6638 144.207 15.1862 145.808 14.1558 144.52C13.1438 143.25 14.0454 140.49 15.6462 138.245C16.603 136.884 17.4862 135.467 18.259 133.976C19.363 132.155 20.099 130.186 20.6142 128.162C21.4422 124.795 24.0366 119.404 27.091 116.239C31.6358 111.565 36.1438 106.91 40.6334 102.292C43.6878 99.1452 45.6566 95.7044 45.0494 94.6004C44.4422 93.4964 42.5654 93.9196 40.8358 95.5756C39.8054 96.5508 38.775 97.5444 37.6894 98.5748C34.1934 102.052 30.7526 105.475 27.3486 108.879C24.239 111.97 21.3134 110.903 19.6574 106.818C19.455 106.303 19.2342 105.788 19.0134 105.291C17.2286 101.28 17.8726 95.7412 21.0006 92.65C25.3798 88.326 29.7406 84.0204 34.1198 79.7148C37.2478 76.6236 39.8606 71.2508 40.3942 67.7548C40.9278 64.2588 39.2166 64.038 36.1622 67.1844C29.8878 73.6428 23.6502 80.1012 17.3758 86.5596C14.303 89.7428 11.1382 91.1044 10.2918 89.5956Z" fill="#58595A"/>
</svg>
