<svg width="25" height="25" viewBox="0 0 25 25"  xmlns="http://www.w3.org/2000/svg">
    <path d="M22.3824 13.8549H13.811V22.4263C13.811 22.881 13.6304 23.317 13.3089 23.6385C12.9874 23.96 12.5513 24.1406 12.0967 24.1406C11.642 24.1406 11.206 23.96 10.8845 23.6385C10.563 23.317 10.3824 22.881 10.3824 22.4263V13.8549H1.81097C1.35631 13.8549 0.920274 13.6743 0.598783 13.3528C0.277292 13.0313 0.0966797 12.5953 0.0966797 12.1406C0.0966797 11.686 0.277292 11.2499 0.598783 10.9284C0.920274 10.607 1.35631 10.4263 1.81097 10.4263H10.3824V1.85491C10.3824 1.40025 10.563 0.964218 10.8845 0.642727C11.206 0.321236 11.642 0.140625 12.0967 0.140625C12.5513 0.140625 12.9874 0.321236 13.3089 0.642727C13.6304 0.964218 13.811 1.40025 13.811 1.85491V10.4263H22.3824C22.8371 10.4263 23.2731 10.607 23.5946 10.9284C23.9161 11.2499 24.0967 11.686 24.0967 12.1406C24.0967 12.5953 23.9161 13.0313 23.5946 13.3528C23.2731 13.6743 22.8371 13.8549 22.3824 13.8549Z"/>
</svg>
