<svg width="76" height="76" viewBox="0 0 76 76" fill="none" xmlns="http://www.w3.org/2000/svg">
    <path d="M19.4502 41.75H56.9502V34.25H19.4502V41.75ZM38.2002 75.5C33.0127 75.5 28.1377 74.515 23.5752 72.545C19.0127 70.575 15.0439 67.9037 11.6689 64.5312C8.29395 61.1562 5.6227 57.1875 3.6552 52.625C1.6877 48.0625 0.702695 43.1875 0.700195 38C0.700195 32.8125 1.6852 27.9375 3.6552 23.375C5.6252 18.8125 8.29645 14.8438 11.6689 11.4688C15.0439 8.09375 19.0127 5.4225 23.5752 3.455C28.1377 1.4875 33.0127 0.5025 38.2002 0.5C43.3877 0.5 48.2627 1.485 52.8252 3.455C57.3877 5.425 61.3564 8.09625 64.7314 11.4688C68.1064 14.8438 70.7789 18.8125 72.7489 23.375C74.7189 27.9375 75.7027 32.8125 75.7002 38C75.7002 43.1875 74.7152 48.0625 72.7452 52.625C70.7752 57.1875 68.1039 61.1562 64.7314 64.5312C61.3564 67.9062 57.3877 70.5787 52.8252 72.5487C48.2627 74.5187 43.3877 75.5025 38.2002 75.5Z" fill="#DC3B3B"/>
</svg>
