<svg width="31" height="23" viewBox="0 0 31 23" fill="none" xmlns="http://www.w3.org/2000/svg">
    <g filter="url(#filter0_dd_212_14667)">
        <g clip-path="url(#clip0_212_14667)">
            <mask id="mask0_212_14667" style="mask-TextTag:luminance" maskUnits="userSpaceOnUse" x="3" y="2" width="25" height="17">
                <rect x="3.07227" y="2.88086" width="24" height="16" fill="white"/>
            </mask>
            <g mask="url(#mask0_212_14667)">
                <path fill-rule="evenodd" clip-rule="evenodd" d="M3.07227 2.88086V18.8809H27.0723V2.88086H3.07227Z" fill="#2E42A5"/>
                <mask id="mask1_212_14667" style="mask-TextTag:luminance" maskUnits="userSpaceOnUse" x="3" y="2" width="25" height="17">
                    <path fill-rule="evenodd" clip-rule="evenodd" d="M3.07227 2.88086V18.8809H27.0723V2.88086H3.07227Z" fill="white"/>
                </mask>
                <g mask="url(#mask1_212_14667)">
                    <mask id="mask2_212_14667" style="mask-TextTag:luminance" maskUnits="userSpaceOnUse" x="3" y="2" width="25" height="17">
                        <rect x="3.07227" y="2.88086" width="24" height="16" fill="white"/>
                    </mask>
                    <g mask="url(#mask2_212_14667)">
                        <path d="M0.400391 17.7378L5.68166 19.7231L27.1926 5.0394L29.9783 2.08908L24.3308 1.4255L15.557 7.75315L8.49498 12.0165L0.400391 17.7378Z" fill="white"/>
                        <path d="M1.12305 19.1286L3.81361 20.2808L28.9776 1.8148H25.1998L1.12305 19.1286Z" fill="#F50100"/>
                        <path d="M29.7441 17.7378L24.4629 19.7231L2.95195 5.0394L0.166199 2.08908L5.81376 1.4255L14.5875 7.75315L21.6495 12.0165L29.7441 17.7378Z" fill="white"/>
                        <path d="M29.5625 18.736L26.8719 19.8882L16.1568 11.9819L12.98 11.0986L-0.103289 2.09914H3.67457L16.7505 10.885L20.2238 11.9442L29.5625 18.736Z" fill="#F50100"/>
                        <mask id="path-10-inside-1_212_14667" fill="white">
                            <path fill-rule="evenodd" clip-rule="evenodd" d="M17.9069 1.54736H12.2402V8.21404H1.59375V13.5474H12.2402V20.214H17.9069V13.5474H28.5938V8.21404H17.9069V1.54736Z"/>
                        </mask>
                        <path fill-rule="evenodd" clip-rule="evenodd" d="M17.9069 1.54736H12.2402V8.21404H1.59375V13.5474H12.2402V20.214H17.9069V13.5474H28.5938V8.21404H17.9069V1.54736Z" fill="#F50100"/>
                        <path d="M12.2402 1.54736V0.297363H10.9902V1.54736H12.2402ZM17.9069 1.54736H19.1569V0.297363H17.9069V1.54736ZM12.2402 8.21404V9.46404H13.4902V8.21404H12.2402ZM1.59375 8.21404V6.96404H0.34375V8.21404H1.59375ZM1.59375 13.5474H0.34375V14.7974H1.59375V13.5474ZM12.2402 13.5474H13.4902V12.2974H12.2402V13.5474ZM12.2402 20.214H10.9902V21.464H12.2402V20.214ZM17.9069 20.214V21.464H19.1569V20.214H17.9069ZM17.9069 13.5474V12.2974H16.6569V13.5474H17.9069ZM28.5938 13.5474V14.7974H29.8438V13.5474H28.5938ZM28.5938 8.21404H29.8438V6.96404H28.5938V8.21404ZM17.9069 8.21404H16.6569V9.46404H17.9069V8.21404ZM12.2402 2.79736H17.9069V0.297363H12.2402V2.79736ZM13.4902 8.21404V1.54736H10.9902V8.21404H13.4902ZM1.59375 9.46404H12.2402V6.96404H1.59375V9.46404ZM2.84375 13.5474V8.21404H0.34375V13.5474H2.84375ZM12.2402 12.2974H1.59375V14.7974H12.2402V12.2974ZM13.4902 20.214V13.5474H10.9902V20.214H13.4902ZM17.9069 18.964H12.2402V21.464H17.9069V18.964ZM16.6569 13.5474V20.214H19.1569V13.5474H16.6569ZM28.5938 12.2974H17.9069V14.7974H28.5938V12.2974ZM27.3438 8.21404V13.5474H29.8438V8.21404H27.3438ZM17.9069 9.46404H28.5938V6.96404H17.9069V9.46404ZM16.6569 1.54736V8.21404H19.1569V1.54736H16.6569Z" fill="white" mask="url(#path-10-inside-1_212_14667)"/>
                    </g>
                </g>
            </g>
        </g>
    </g>
    <defs>
        <filter id="filter0_dd_212_14667" x="0.0722656" y="0.880859" width="30" height="22" filterUnits="userSpaceOnUse" color-interpolation-filters="sRGB">
            <feFlood flood-opacity="0" result="BackgroundImageFix"/>
            <feColorMatrix in="SourceAlpha" type="matrix" values="0 0 0 0 0 0 0 0 0 0 0 0 0 0 0 0 0 0 127 0" result="hardAlpha"/>
            <feOffset dy="1"/>
            <feGaussianBlur stdDeviation="1"/>
            <feColorMatrix type="matrix" values="0 0 0 0 0.0627451 0 0 0 0 0.0941176 0 0 0 0 0.156863 0 0 0 0.06 0"/>
            <feBlend mode="normal" in2="BackgroundImageFix" result="effect1_dropShadow_212_14667"/>
            <feColorMatrix in="SourceAlpha" type="matrix" values="0 0 0 0 0 0 0 0 0 0 0 0 0 0 0 0 0 0 127 0" result="hardAlpha"/>
            <feOffset dy="1"/>
            <feGaussianBlur stdDeviation="1.5"/>
            <feColorMatrix type="matrix" values="0 0 0 0 0.0627451 0 0 0 0 0.0941176 0 0 0 0 0.156863 0 0 0 0.1 0"/>
            <feBlend mode="normal" in2="effect1_dropShadow_212_14667" result="effect2_dropShadow_212_14667"/>
            <feBlend mode="normal" in="SourceGraphic" in2="effect2_dropShadow_212_14667" result="shape"/>
        </filter>
        <clipPath id="clip0_212_14667">
            <rect x="3.07227" y="2.88086" width="24" height="16" rx="1" fill="white"/>
        </clipPath>
    </defs>
</svg>
